<svg width="21" height="22" viewBox="0 0 21 22" fill="none" xmlns="http://www.w3.org/2000/svg">
  <path d="M16.6113 9.05476C16.6115 10.6481 16.1391 12.2057 15.254 13.5306C14.3689 14.8554 13.1108 15.8881 11.6388 16.4979C10.1668 17.1077 8.54701 17.2673 6.98429 16.9565C5.42156 16.6457 3.9861 15.8785 2.85945 14.7518C1.73279 13.6252 0.965548 12.1897 0.654747 10.627C0.343947 9.06428 0.50355 7.44448 1.11337 5.97247C1.7232 4.50046 2.75585 3.24235 4.08073 2.35725C5.40561 1.47215 6.96321 0.999824 8.55654 1C10.6927 1.00024 12.7413 1.84893 14.2519 3.35944C15.7624 4.86995 16.6111 6.91857 16.6113 9.05476Z" stroke="black" stroke-linecap="round" stroke-linejoin="round"/>
  <path d="M4.50073 8.99902H12.5004" stroke="black" stroke-linecap="round" stroke-linejoin="round"/>
  <path d="M14.2522 14.751L20.4999 20.9996" stroke="black" stroke-linecap="round" stroke-linejoin="round"/>
</svg>
  